<svg width="20" height="21" viewBox="0 0 20 21" fill="none" xmlns="http://www.w3.org/2000/svg">
<path d="M10 0.189941C4.4772 0.189941 0 4.66714 0 10.1899C0 14.8795 3.2288 18.8147 7.5844 19.8955V13.2459H5.5224V10.1899H7.5844V8.87314C7.5844 5.46954 9.1248 3.89194 12.4664 3.89194C13.1 3.89194 14.1932 4.01634 14.6404 4.14034V6.91034C14.4044 6.88554 13.9944 6.87314 13.4852 6.87314C11.8456 6.87314 11.212 7.49434 11.212 9.10914V10.1899H14.4784L13.9172 13.2459H11.212V20.1167C16.1636 19.5187 20.0004 15.3027 20.0004 10.1899C20 4.66714 15.5228 0.189941 10 0.189941Z" fill="white"/>
</svg>
