<svg width="20" height="21" viewBox="0 0 20 21" fill="none" xmlns="http://www.w3.org/2000/svg">
<g clip-path="url(#clip0_2029_34)">
<path d="M10 2.40079C12.6719 2.40079 12.9883 2.41251 14.0391 2.45938C15.0156 2.50235 15.543 2.66641 15.8945 2.80313C16.3594 2.98282 16.6953 3.20157 17.043 3.54923C17.3945 3.90079 17.6094 4.23282 17.7891 4.69766C17.9258 5.04923 18.0898 5.58047 18.1328 6.55313C18.1797 7.60782 18.1914 7.92423 18.1914 10.5922C18.1914 13.2641 18.1797 13.5805 18.1328 14.6313C18.0898 15.6078 17.9258 16.1352 17.7891 16.4867C17.6094 16.9516 17.3906 17.2875 17.043 17.6352C16.6914 17.9867 16.3594 18.2016 15.8945 18.3813C15.543 18.518 15.0117 18.682 14.0391 18.725C12.9844 18.7719 12.668 18.7836 10 18.7836C7.32813 18.7836 7.01172 18.7719 5.96094 18.725C4.98438 18.682 4.45703 18.518 4.10547 18.3813C3.64063 18.2016 3.30469 17.9828 2.95703 17.6352C2.60547 17.2836 2.39063 16.9516 2.21094 16.4867C2.07422 16.1352 1.91016 15.6039 1.86719 14.6313C1.82031 13.5766 1.80859 13.2602 1.80859 10.5922C1.80859 7.92032 1.82031 7.60391 1.86719 6.55313C1.91016 5.57657 2.07422 5.04923 2.21094 4.69766C2.39063 4.23282 2.60938 3.89688 2.95703 3.54923C3.30859 3.19766 3.64063 2.98282 4.10547 2.80313C4.45703 2.66641 4.98828 2.50235 5.96094 2.45938C7.01172 2.41251 7.32813 2.40079 10 2.40079ZM10 0.600006C7.28516 0.600006 6.94531 0.611725 5.87891 0.6586C4.81641 0.705475 4.08594 0.87735 3.45313 1.12344C2.79297 1.38126 2.23438 1.7211 1.67969 2.27969C1.12109 2.83438 0.78125 3.39298 0.523438 4.04923C0.277344 4.68594 0.105469 5.41251 0.0585938 6.47501C0.0117188 7.54532 0 7.88516 0 10.6C0 13.3149 0.0117188 13.6547 0.0585938 14.7211C0.105469 15.7836 0.277344 16.5141 0.523438 17.1469C0.78125 17.807 1.12109 18.3656 1.67969 18.9203C2.23438 19.475 2.79297 19.8188 3.44922 20.0727C4.08594 20.3188 4.8125 20.4906 5.875 20.5375C6.94141 20.5844 7.28125 20.5961 9.99609 20.5961C12.7109 20.5961 13.0508 20.5844 14.1172 20.5375C15.1797 20.4906 15.9102 20.3188 16.543 20.0727C17.1992 19.8188 17.7578 19.475 18.3125 18.9203C18.8672 18.3656 19.2109 17.807 19.4648 17.1508C19.7109 16.5141 19.8828 15.7875 19.9297 14.725C19.9766 13.6586 19.9883 13.3188 19.9883 10.6039C19.9883 7.88907 19.9766 7.54923 19.9297 6.48282C19.8828 5.42032 19.7109 4.68985 19.4648 4.05704C19.2188 3.39298 18.8789 2.83438 18.3203 2.27969C17.7656 1.72501 17.207 1.38126 16.5508 1.12735C15.9141 0.881256 15.1875 0.709381 14.125 0.662506C13.0547 0.611725 12.7148 0.600006 10 0.600006Z" fill="white"/>
<path d="M10 5.46329C7.16406 5.46329 4.86328 7.76407 4.86328 10.6C4.86328 13.4359 7.16406 15.7367 10 15.7367C12.8359 15.7367 15.1367 13.4359 15.1367 10.6C15.1367 7.76407 12.8359 5.46329 10 5.46329ZM10 13.932C8.16016 13.932 6.66797 12.4398 6.66797 10.6C6.66797 8.76016 8.16016 7.26797 10 7.26797C11.8398 7.26797 13.332 8.76016 13.332 10.6C13.332 12.4398 11.8398 13.932 10 13.932Z" fill="white"/>
<path d="M16.5391 5.26013C16.5391 5.9242 16 6.45935 15.3398 6.45935C14.6758 6.45935 14.1406 5.92029 14.1406 5.26013C14.1406 4.59607 14.6797 4.06091 15.3398 4.06091C16 4.06091 16.5391 4.59998 16.5391 5.26013Z" fill="white"/>
</g>
<defs>
<clipPath id="clip0_2029_34">
<rect width="20" height="20" fill="white" transform="translate(0 0.600006)"/>
</clipPath>
</defs>
</svg>
