<svg width="135" height="18" viewBox="0 0 135 18" fill="none" xmlns="http://www.w3.org/2000/svg">
<path d="M12.55 14.92H6.3L5.35 17.795H0.2L6.625 0.169997H12.275L18.675 17.795H13.5L12.55 14.92ZM11.325 11.17L9.425 5.47L7.55 11.17H11.325ZM39.9221 0.169997L33.8471 17.795H27.5721L21.4721 0.169997H26.7221L30.7221 12.895L34.6971 0.169997H39.9221ZM55.0988 14.92H48.8488L47.8988 17.795H42.7488L49.1738 0.169997H54.8238L61.2238 17.795H56.0488L55.0988 14.92ZM53.8738 11.17L51.9738 5.47L50.0988 11.17H53.8738ZM74.2459 17.795L70.7459 11.295H70.2209V17.795H65.3209V0.169997H73.0459C74.4626 0.169997 75.6626 0.419997 76.6459 0.919998C77.6292 1.40333 78.3709 2.07833 78.8709 2.945C79.3709 3.795 79.6209 4.75333 79.6209 5.82C79.6209 7.02 79.2876 8.07833 78.6209 8.995C77.9709 9.895 77.0126 10.5367 75.7459 10.92L79.7209 17.795H74.2459ZM70.2209 7.945H72.6459C73.3126 7.945 73.8126 7.78666 74.1459 7.47C74.4792 7.15333 74.6459 6.695 74.6459 6.095C74.6459 5.52833 74.4709 5.08666 74.1209 4.77C73.7876 4.43666 73.2959 4.27 72.6459 4.27H70.2209V7.945ZM97.6242 0.169997V4.07H92.9242V17.795H88.0242V4.07H83.3742V0.169997H97.6242ZM106.837 4.095V6.97H112.462V10.695H106.837V13.87H113.212V17.795H101.937V0.169997H113.212V4.095H106.837ZM129.158 17.795L125.733 12.82L122.808 17.795H117.233L122.958 8.77L117.033 0.169997H122.808L126.133 5.02L128.983 0.169997H134.558L128.908 9.045L134.933 17.795H129.158Z" fill="white"/>
</svg>
