<svg width="22" height="22" viewBox="0 0 22 22" fill="none" xmlns="http://www.w3.org/2000/svg">
<path d="M15.1797 11.25L21.0391 17.168C21.8008 17.8711 21.8008 19.043 21.0391 19.7461L19.75 21.0352C19.0469 21.7969 17.875 21.7969 17.1719 21.0352L11.3125 15.1758L5.39453 21.0352C4.69141 21.7969 3.51953 21.7969 2.81641 21.0352L1.52734 19.7461C0.765625 19.043 0.765625 17.8711 1.52734 17.168L7.38672 11.25L1.52734 5.39062C0.765625 4.6875 0.765625 3.51562 1.52734 2.8125L2.81641 1.52344C3.51953 0.761719 4.69141 0.761719 5.39453 1.52344L11.3125 7.38281L17.1719 1.52344C17.875 0.761719 19.0469 0.761719 19.75 1.52344L21.0391 2.8125C21.8008 3.51562 21.8008 4.6875 21.0391 5.39062L15.1797 11.25Z" fill="white"/>
</svg>
