<svg width="20" height="15" viewBox="0 0 20 15" fill="none" xmlns="http://www.w3.org/2000/svg">
<path d="M19.8008 3.19C19.8008 3.19 19.6055 1.8111 19.0039 1.20563C18.2422 0.408753 17.3906 0.404846 17 0.357971C14.2031 0.154846 10.0039 0.154846 10.0039 0.154846H9.99609C9.99609 0.154846 5.79687 0.154846 3 0.357971C2.60938 0.404846 1.75781 0.408753 0.996094 1.20563C0.394531 1.8111 0.203125 3.19 0.203125 3.19C0.203125 3.19 0 4.8111 0 6.42828V7.94391C0 9.5611 0.199219 11.1822 0.199219 11.1822C0.199219 11.1822 0.394531 12.5611 0.992187 13.1666C1.75391 13.9634 2.75391 13.9361 3.19922 14.022C4.80078 14.1744 10 14.2213 10 14.2213C10 14.2213 14.2031 14.2134 17 14.0142C17.3906 13.9673 18.2422 13.9634 19.0039 13.1666C19.6055 12.5611 19.8008 11.1822 19.8008 11.1822C19.8008 11.1822 20 9.565 20 7.94391V6.42828C20 4.8111 19.8008 3.19 19.8008 3.19ZM7.93359 9.78375V4.16266L13.3359 6.98297L7.93359 9.78375Z" fill="white"/>
</svg>
